<svg width="64" height="64" viewBox="0 0 64 64" fill="none" xmlns="http://www.w3.org/2000/svg">
<path d="M41.4134 14.4986L55.8827 28.9973C57.6644 30.7847 58.6648 33.2056 58.6648 35.7293C58.6648 38.253 57.6644 40.6739 55.8827 42.4613C54.7379 43.6106 53.3175 44.447 51.7572 44.8905C50.1968 45.334 48.5488 45.3699 46.9707 44.9946V45.3253C46.9714 46.0263 46.834 46.7205 46.5663 47.3683C46.2986 48.0162 45.9059 48.6049 45.4107 49.1009C44.9154 49.597 44.3272 49.9905 43.6798 50.2592C43.0324 50.5278 42.3383 50.6663 41.6374 50.6666H36.0107L36.0134 48.672L36 48.224C35.892 46.4391 35.136 44.7551 33.8741 43.4883C32.6122 42.2215 30.9311 41.459 29.1467 41.344L28.6827 41.328H26.016L25.7467 41.3466C25.2673 41.4125 24.828 41.6498 24.51 42.0145C24.192 42.3792 24.0168 42.8468 24.0168 43.3306C24.0168 43.8145 24.192 44.282 24.51 44.6468C24.828 45.0115 25.2673 45.2487 25.7467 45.3146L26.0187 45.3333H28.6854L29.024 45.352C29.7866 45.4308 30.4987 45.7701 31.0403 46.3127C31.5819 46.8553 31.9199 47.5679 31.9974 48.3306L32.016 48.672L32.0134 50.6666H18.68C17.9794 50.6659 17.2858 50.5272 16.6389 50.2584C15.9919 49.9895 15.4042 49.5959 14.9094 49.0998C14.4146 48.6038 14.0224 48.0152 13.7552 47.3675C13.488 46.7199 13.351 46.0259 13.352 45.3253V38.648C13.352 38.1413 13.384 37.64 13.4427 37.1493C12.468 37.3643 11.4574 37.3579 10.4854 37.1305C9.5135 36.9031 8.60496 36.4606 7.82678 35.8354C7.0486 35.2102 6.42061 34.4185 5.98908 33.5184C5.55755 32.6183 5.33348 31.6328 5.33338 30.6346C5.33196 28.8656 6.03318 27.1684 7.28284 25.9162C8.53251 24.664 10.2283 23.9594 11.9974 23.9573C13.4534 23.9582 14.869 24.4357 16.0281 25.3169C17.1871 26.1982 18.0258 27.4346 18.416 28.8373C20.4388 27.3949 22.8624 26.6219 25.3467 26.6266H34.976C36.584 26.6266 38.12 26.9466 39.5227 27.52C39.9702 26.7676 40.5045 26.0703 41.1147 25.4426L35.8027 20.1226C35.0579 19.3758 34.6396 18.3641 34.6396 17.3093C34.6396 16.2545 35.0579 15.2428 35.8027 14.496C36.1708 14.1266 36.6083 13.8336 37.0899 13.6336C37.5715 13.4336 38.0879 13.3307 38.6094 13.3307C39.1309 13.3307 39.6472 13.4336 40.1289 13.6336C40.6105 13.8336 41.0479 14.1266 41.416 14.496" fill="white"/>
</svg>
